<svg width="122" height="42" viewBox="0 0 122 42" fill="none" xmlns="http://www.w3.org/2000/svg">
<path d="M62.284 31L57.524 24.448V31H52.736V10.28H57.524V21.732L62.256 15.376H68.164L61.668 23.216L68.22 31H62.284ZM77.1566 31.224C75.6259 31.224 74.2446 30.8973 73.0126 30.244C71.7993 29.5907 70.8379 28.6573 70.1286 27.444C69.4379 26.2307 69.0926 24.812 69.0926 23.188C69.0926 21.5827 69.4473 20.1733 70.1566 18.96C70.8659 17.728 71.8366 16.7853 73.0686 16.132C74.3006 15.4787 75.6819 15.152 77.2126 15.152C78.7433 15.152 80.1246 15.4787 81.3566 16.132C82.5886 16.7853 83.5593 17.728 84.2686 18.96C84.9779 20.1733 85.3326 21.5827 85.3326 23.188C85.3326 24.7933 84.9686 26.212 84.2406 27.444C83.5313 28.6573 82.5513 29.5907 81.3006 30.244C80.0686 30.8973 78.6873 31.224 77.1566 31.224ZM77.1566 27.08C78.0713 27.08 78.8459 26.744 79.4806 26.072C80.1339 25.4 80.4606 24.4387 80.4606 23.188C80.4606 21.9373 80.1433 20.976 79.5086 20.304C78.8926 19.632 78.1273 19.296 77.2126 19.296C76.2793 19.296 75.5046 19.632 74.8886 20.304C74.2726 20.9573 73.9646 21.9187 73.9646 23.188C73.9646 24.4387 74.2633 25.4 74.8606 26.072C75.4766 26.744 76.2419 27.08 77.1566 27.08ZM94.9847 31.224C93.4541 31.224 92.0727 30.8973 90.8407 30.244C89.6274 29.5907 88.6661 28.6573 87.9567 27.444C87.2661 26.2307 86.9207 24.812 86.9207 23.188C86.9207 21.5827 87.2754 20.1733 87.9847 18.96C88.6941 17.728 89.6647 16.7853 90.8967 16.132C92.1287 15.4787 93.5101 15.152 95.0407 15.152C96.5714 15.152 97.9527 15.4787 99.1847 16.132C100.417 16.7853 101.387 17.728 102.097 18.96C102.806 20.1733 103.161 21.5827 103.161 23.188C103.161 24.7933 102.797 26.212 102.069 27.444C101.359 28.6573 100.379 29.5907 99.1287 30.244C97.8967 30.8973 96.5154 31.224 94.9847 31.224ZM94.9847 27.08C95.8994 27.08 96.6741 26.744 97.3087 26.072C97.9621 25.4 98.2887 24.4387 98.2887 23.188C98.2887 21.9373 97.9714 20.976 97.3367 20.304C96.7207 19.632 95.9554 19.296 95.0407 19.296C94.1074 19.296 93.3327 19.632 92.7167 20.304C92.1007 20.9573 91.7927 21.9187 91.7927 23.188C91.7927 24.4387 92.0914 25.4 92.6887 26.072C93.3047 26.744 94.0701 27.08 94.9847 27.08ZM115.249 31L110.489 24.448V31H105.701V10.28H110.489V21.732L115.221 15.376H121.129L114.633 23.216L121.185 31H115.249Z" fill="#343741"/>
<path d="M0 5H13V37C5.8203 37 0 31.1797 0 24V5Z" fill="#343741"/>
<path d="M17 22C24.732 22 31 28.268 31 36V37H17V22Z" fill="#FEC514"/>
<path d="M17 5H31V6C31 13.732 24.732 20 17 20V5Z" fill="#00BFB3"/>
</svg>
